# xmcd
#
# Track frame offsets: 
#        150
#        5492
#        11246
#        17238
#        22891
#        32004
#        38307
#        44572
#        55530
#        60794
#
# Disc length: 871 seconds
#
# Revision: 0
# Processed by: cddbd v1.5.2PL0 Copyright (c) Steve Scherf et al.
# Submitted via: ExactAudioCopyFreeDBPlugin 1.0
#
DISCID=6703650a
DTITLE=Tony Molina - Kill The Lights
DYEAR=2018
DGENRE=Power Pop
TTITLE0=Nothing I Can Say
TTITLE1=Wrong Town
TTITLE2=Afraid To Go Outside
TTITLE3=Now That She's Gone
TTITLE4=Jasper's Theme
TTITLE5=Give He Take You
TTITLE6=When She Leaves
TTITLE7=Look Inside Your Mind - Losin' Touch
TTITLE8=Before You Go
TTITLE9=Outro
EXTD=
EXTT0=
EXTT1=
EXTT2=
EXTT3=
EXTT4=
EXTT5=
EXTT6=
EXTT7=
EXTT8=
EXTT9=
PLAYORDER=
